<?xml version="1.0" standalone="no"?>
<!DOCTYPE svg PUBLIC "-//W3C//DTD SVG 20010904//EN"
 "http://www.w3.org/TR/2001/REC-SVG-20010904/DTD/svg10.dtd">
<svg version="1.0" xmlns="http://www.w3.org/2000/svg"
 width="512.000000pt" height="512.000000pt" viewBox="0 0 512.000000 512.000000"
 preserveAspectRatio="xMidYMid meet">
<metadata>
Created by potrace 1.14, written by Peter Selinger 2001-2017
</metadata>
<g transform="translate(0.000000,512.000000) scale(0.100000,-0.100000)"
fill="#000000" stroke="none">
<path d="M1150 5105 c-259 -51 -548 -224 -757 -452 -78 -85 -183 -215 -183
-228 0 -4 -14 -26 -30 -50 -45 -66 -117 -225 -146 -324 -29 -99 -40 -248 -24
-344 5 -34 25 -94 44 -133 33 -66 83 -118 736 -772 l700 -702 0 -353 c1 -193
1 -493 1 -664 0 -172 2 -313 4 -313 2 0 59 47 125 105 l122 105 90 -78 c50
-42 105 -90 124 -105 l34 -28 1 273 c0 150 0 335 0 411 1 75 3 137 6 137 2 0
343 -339 757 -753 674 -673 760 -755 817 -784 406 -200 1098 176 1414 769 94
177 131 317 129 498 -1 153 -40 247 -153 363 -36 38 -802 806 -1703 1706
-1238 1239 -1649 1644 -1688 1665 -29 16 -75 35 -104 43 -68 20 -236 24 -316
8z"/>
</g>
</svg>
